<svg xmlns="http://www.w3.org/2000/svg" width="158.233" height="18" viewBox="0 0 158.233 18">
  <g id="logo" transform="translate(-9 -27.8)">
    <g id="Group_3" data-name="Group 3" transform="translate(9.5 28.3)">
      <path id="Path_19" data-name="Path 19" d="M24.317,30.483H22.134V28.3H9.5v17H22.1V43.084h2.183V40.9h2.183V32.666H24.284V30.483Zm-6.053,8.765V41.43H15.553V32.137h2.712v2.183h2.183v4.928Z" transform="translate(-9.5 -28.3)" fill="none" stroke="#fff" stroke-width="1"/>
      <path id="Path_20" data-name="Path 20" d="M62.5,45.3h17V41.43H68.553V38.718h8.765V34.882H68.553V32.137H79.5V28.3h-17Z" transform="translate(-44.971 -28.3)" fill="none" stroke="#fff" stroke-width="1"/>
      <path id="Path_21" data-name="Path 21" d="M115.5,45.3h6.053V38.718h8.765V34.882h-8.765V32.137H132.5V28.3h-17Z" transform="translate(-80.442 -28.3)" fill="none" stroke="#fff" stroke-width="1"/>
      <path id="Path_22" data-name="Path 22" d="M175.1,32.137h4.4V41.43h-4.4V45.3h14.817V41.43h-4.4V32.137h4.4V28.3H175.1Z" transform="translate(-120.33 -28.3)" fill="none" stroke="#fff" stroke-width="1"/>
      <path id="Path_23" data-name="Path 23" d="M232.447,34.882h-2.183v2.183h-.529V34.882h-2.183V28.3H221.5V38.718h2.183V40.9H225.9v2.183h2.183V45.3h3.837V43.084H234.1V40.9h2.183V38.718H238.5V28.3h-6.053Z" transform="translate(-151.383 -28.3)" fill="none" stroke="#fff" stroke-width="1"/>
      <path id="Path_24" data-name="Path 24" d="M281.1,32.137h4.4V41.43h-4.4V45.3h14.817V41.43h-4.4V32.137h4.4V28.3H281.1Z" transform="translate(-191.271 -28.3)" fill="none" stroke="#fff" stroke-width="1"/>
      <path id="Path_25" data-name="Path 25" d="M340.153,28.3H334.1v17h14.817V41.43h-8.765Z" transform="translate(-226.742 -28.3)" fill="none" stroke="#fff" stroke-width="1"/>
      <path id="Path_26" data-name="Path 26" d="M393.153,28.3H387.1v17h14.817V41.43h-8.765Z" transform="translate(-262.213 -28.3)" fill="none" stroke="#fff" stroke-width="1"/>
      <path id="Path_27" data-name="Path 27" d="M450.5,32.137V28.3h-17v17h17V41.43H439.553V38.718h8.732V34.882h-8.732V32.137Z" transform="translate(-293.267 -28.3)" fill="none" stroke="#fff" stroke-width="1"/>
    </g>
  </g>
</svg>
