<svg xmlns="http://www.w3.org/2000/svg" width="24.767" height="21.233" viewBox="0 0 24.767 21.233">
  <path id="matic" d="M21.29,44.339a1.585,1.585,0,0,0-1.552,0l-3.564,2.067-2.423,1.346L10.188,49.82a1.585,1.585,0,0,1-1.552,0L5.8,48.2a1.544,1.544,0,0,1-.776-1.3V43.714a1.453,1.453,0,0,1,.776-1.3l2.788-1.572a1.585,1.585,0,0,1,1.552,0l2.788,1.572a1.544,1.544,0,0,1,.776,1.3v2.067L16.13,44.39V42.322a1.453,1.453,0,0,0-.776-1.3l-5.171-2.968a1.585,1.585,0,0,0-1.552,0L3.376,41.016a1.453,1.453,0,0,0-.776,1.3v5.971a1.453,1.453,0,0,0,.776,1.3l5.256,2.963a1.585,1.585,0,0,0,1.552,0l3.564-2.022L16.17,49.14l3.564-2.022a1.585,1.585,0,0,1,1.552,0l2.788,1.572a1.544,1.544,0,0,1,.776,1.3v3.188a1.453,1.453,0,0,1-.776,1.3L21.29,56.1a1.585,1.585,0,0,1-1.552,0L16.95,54.525a1.544,1.544,0,0,1-.776-1.3V51.157l-2.423,1.391v2.067a1.453,1.453,0,0,0,.776,1.3l5.256,2.963a1.585,1.585,0,0,0,1.552,0l5.256-2.963a1.544,1.544,0,0,0,.776-1.3V48.649a1.453,1.453,0,0,0-.776-1.3Z" transform="translate(-2.6 -37.85)" fill="#00c8d4"/>
</svg>
